<svg version="1.0" xmlns="http://www.w3.org/2000/svg" width="512.000000pt" height="512.000000pt" viewBox="0 0 512.000000 512.000000" preserveAspectRatio="xMidYMid meet">

  <g transform="translate(0.000000,512.000000) scale(0.100000,-0.100000)" fill="#0066ff" stroke="none">
    <path
      d="M420 5109 c-30 -5 -92 -27 -136 -49 -137 -67 -237 -197 -270 -349
-11 -55 -14 -398 -14 -2141 0 -1375 4 -2097 10 -2140 34 -211 213 -388 425
-420 48 -7 730 -10 2165 -8 1894 3 2100 5 2146 20 190 59 336 225 364 413 7
47 10 752 8 2165 l-3 2095 -22 66 c-63 183 -220 320 -403 349 -81 12 -4189 12
-4270 -1z m2030 -928 c47 -10 137 -31 200 -46 200 -48 389 -35 450 30 19 20
33 25 71 25 l47 0 23 -52 c19 -43 23 -71 24 -148 0 -86 -3 -101 -31 -160 -57
-120 -154 -190 -293 -211 -81 -12 -92 -11 -401 33 -301 42 -362 33 -403 -63
l-22 -49 -97 0 -98 0 -15 36 c-49 118 -62 269 -31 365 35 110 129 203 239 238
82 26 223 27 337 2z m470 -779 c0 -9 7 -125 15 -257 8 -132 19 -366 26 -520
13 -309 14 -1345 2 -1495 l-8 -95 -40 -19 c-91 -42 -328 -85 -560 -100 -132
-9 -126 -19 -115 194 21 385 10 1196 -25 1954 -8 171 -13 311 -11 313 3 3 584
39 669 42 39 1 47 -2 47 -17z"/>
  </g>
</svg>
