<svg width="93" height="27" viewBox="0 0 93 27" fill="none" xmlns="../../../www.w3.org/2000/svg.html">
<path d="M13.3721 15.5V20H12.8971C11.9804 20 11.1304 19.8083 10.3471 19.425C9.56374 19.025 8.89707 18.475 8.34707 17.775L5.99707 18.15C5.89707 18.1667 5.74707 18.175 5.54707 18.175C4.89707 18.175 4.24707 18.0167 3.59707 17.7C2.94707 17.3667 2.37207 16.925 1.87207 16.375C1.37207 15.8083 1.0054 15.1833 0.77207 14.5C0.588737 13.9167 0.49707 13.3583 0.49707 12.825C0.49707 11.6917 0.82207 10.6417 1.47207 9.675C2.12207 8.70833 2.97207 8.05 4.02207 7.7L6.97207 6.725V6.025H10.9721V13.825C10.9721 14.2917 11.1554 14.6917 11.5221 15.025C11.8887 15.3417 12.3471 15.5 12.8971 15.5H13.3721ZM6.97207 13.45V11.175L5.27207 11.775C4.7554 11.9583 4.49707 12.2667 4.49707 12.7C4.49707 12.9667 4.6054 13.2083 4.82207 13.425C5.03874 13.6417 5.31374 13.725 5.64707 13.675L6.97207 13.45ZM23.0113 9.125C23.8613 9.59167 24.5197 10.2833 24.9863 11.2C25.4697 12.1167 25.7113 13.1333 25.7113 14.25C25.7113 15.5667 25.3863 16.825 24.7363 18.025C24.3697 18.6917 23.8863 19.2083 23.2863 19.575C22.703 19.9417 22.0697 20.125 21.3863 20.125C20.7863 20.125 20.2113 19.9833 19.6613 19.7L17.1113 18.4C16.078 19.4667 14.8363 20 13.3863 20H13.1113V15.5H13.3863C13.7197 15.5 14.0113 15.4417 14.2613 15.325C14.528 15.1917 14.728 15.0167 14.8613 14.8L16.7363 11.2C17.1697 10.3667 17.7447 9.71667 18.4613 9.25C19.1947 8.78333 19.978 8.55 20.8113 8.55C21.578 8.55 22.3113 8.74167 23.0113 9.125ZM21.7113 15.925C22.0447 15.225 22.2113 14.6417 22.2113 14.175C22.2113 13.6417 22.003 13.2583 21.5863 13.025C21.4197 12.925 21.2363 12.875 21.0363 12.875C20.5197 12.875 20.0447 13.3 19.6113 14.15L19.3113 14.725L21.7113 15.925ZM39.682 18.55C39.732 18.9667 39.757 19.375 39.757 19.775C39.757 21.1083 39.4487 22.175 38.832 22.975C38.232 23.775 37.2904 24.425 36.007 24.925C34.7404 25.4417 32.9487 25.9333 30.632 26.4L29.832 22C31.482 21.6667 32.682 21.4 33.432 21.2C34.1987 21.0167 34.7487 20.825 35.082 20.625C35.4154 20.425 35.6154 20.175 35.682 19.875C34.9654 19.9583 34.2237 20 33.457 20C32.457 20 31.557 19.7583 30.757 19.275C29.957 18.7917 29.332 18.125 28.882 17.275C28.432 16.425 28.207 15.4667 28.207 14.4C28.207 13.3167 28.4404 12.3167 28.907 11.4C29.3904 10.4667 30.0404 9.725 30.857 9.175C31.6904 8.60833 32.607 8.325 33.607 8.325C34.607 8.325 35.507 8.59167 36.307 9.125C37.1237 9.64167 37.782 10.3667 38.282 11.3C38.7987 12.2333 39.1237 13.3 39.257 14.5L39.682 18.55ZM32.232 14.425C32.232 14.775 32.3237 15.0417 32.507 15.225C32.707 15.4083 33.0237 15.5 33.457 15.5C34.1237 15.5 34.7487 15.4583 35.332 15.375L35.307 15.05C35.2404 14.3167 35.057 13.7667 34.757 13.4C34.457 13.0167 34.0737 12.825 33.607 12.825C33.1904 12.825 32.857 12.975 32.607 13.275C32.357 13.5583 32.232 13.9417 32.232 14.425ZM40.9951 22.025C42.3285 21.6583 43.2785 21.375 43.8451 21.175C44.4285 20.975 44.8368 20.75 45.0701 20.5C45.3201 20.2667 45.4451 19.95 45.4451 19.55C45.4451 19.4667 45.4285 19.2917 45.3951 19.025L44.3951 11.85L48.3451 11.25L49.3451 18.5C49.4118 18.9167 49.4451 19.3667 49.4451 19.85C49.4451 21.0333 49.1785 22.0167 48.6451 22.8C48.1118 23.6 47.3118 24.275 46.2451 24.825C45.1951 25.375 43.7951 25.8917 42.0451 26.375L40.9951 22.025ZM43.5451 6.975L46.2201 4.3L48.8951 6.975L46.2201 9.65L43.5451 6.975ZM50.6875 22.025C52.0208 21.6583 52.9708 21.375 53.5375 21.175C54.1208 20.975 54.5292 20.75 54.7625 20.5C55.0125 20.2667 55.1375 19.95 55.1375 19.55C55.1375 19.4667 55.1208 19.2917 55.0875 19.025L54.0875 11.85L58.0375 11.25L59.0375 18.5C59.1042 18.9167 59.1375 19.3667 59.1375 19.85C59.1375 21.0333 58.8708 22.0167 58.3375 22.8C57.8042 23.6 57.0042 24.275 55.9375 24.825C54.8875 25.375 53.4875 25.8917 51.7375 26.375L50.6875 22.025ZM76.1848 25.9C75.4014 26.0833 74.6014 26.175 73.7848 26.175C72.3348 26.175 71.0681 25.8417 69.9848 25.175C68.9014 24.5083 68.0681 23.5667 67.4848 22.35C66.9181 21.15 66.6348 19.75 66.6348 18.15C66.6348 16.4833 66.9681 14.6833 67.6348 12.75L71.4348 14.25C70.9014 15.7833 70.6348 17.1167 70.6348 18.25C70.6348 19.3667 70.8931 20.2167 71.4098 20.8C71.9431 21.4 72.7181 21.7 73.7348 21.7C74.1514 21.7 74.6681 21.6333 75.2848 21.5C75.8681 21.3667 76.4598 21.2333 77.0598 21.1C77.6764 20.9833 78.1014 20.9 78.3348 20.85L79.1098 20.675C79.0598 20.6583 78.7598 20.5917 78.2098 20.475C77.6598 20.3583 77.0681 20.1833 76.4348 19.95C75.2348 19.5167 74.3348 18.9833 73.7348 18.35C73.1514 17.7167 72.8598 16.8917 72.8598 15.875C72.8598 15.225 72.9848 14.475 73.2348 13.625C73.7348 12.0083 74.5348 10.7167 75.6348 9.75C76.7514 8.78333 78.0181 8.3 79.4348 8.3C79.9681 8.3 80.5098 8.375 81.0598 8.525L82.6848 8.975L81.6348 13.325L80.0098 12.875C79.7931 12.8083 79.5681 12.775 79.3348 12.775C78.6681 12.775 78.1514 13.0167 77.7848 13.5C77.4181 13.9833 77.1764 14.4333 77.0598 14.85L77.0098 15.15C77.0098 15.2833 77.0931 15.4083 77.2598 15.525C77.4431 15.625 77.8014 15.7583 78.3348 15.925L79.0598 16.15C80.0431 16.45 80.7681 16.7083 81.2348 16.925C81.7014 17.1417 82.0931 17.4417 82.4098 17.825C82.7264 18.2083 82.9598 18.75 83.1098 19.45C83.1598 19.75 83.1848 20.0333 83.1848 20.3C83.1848 21.6333 82.5681 22.775 81.3348 23.725C80.1181 24.675 78.4014 25.4 76.1848 25.9ZM90.4277 4.625L91.0027 19.95L87.0027 20.125L86.4277 4.825L90.4277 4.625ZM84.4277 3.25C84.4277 2.46667 84.6527 1.84167 85.1027 1.375C85.5694 0.891665 86.1777 0.649999 86.9277 0.649999C87.1944 0.649999 87.3944 0.666666 87.5277 0.7L90.0527 1.175C90.1194 1.19167 90.2194 1.2 90.3527 1.2C90.6527 1.2 90.8027 1.075 90.8027 0.825V0.749999L92.8027 0.599999V1.275C92.8027 2.05833 92.5694 2.69167 92.1027 3.175C91.6527 3.64167 91.0527 3.875 90.3027 3.875C90.0361 3.875 89.8361 3.85833 89.7027 3.825L87.1777 3.35C87.1111 3.33333 87.0111 3.325 86.8777 3.325C86.5777 3.325 86.4277 3.45 86.4277 3.7V3.775L84.4277 3.925V3.25Z" fill="#0066FF"/>
</svg>
