<?xml version="1.0" standalone="no"?>
<!DOCTYPE svg PUBLIC "-//W3C//DTD SVG 20010904//EN"
 "http://www.w3.org/TR/2001/REC-SVG-20010904/DTD/svg10.dtd">
<svg version="1.0" xmlns="../../../www.w3.org/2000/svg.html"
 width="512.000000pt" height="512.000000pt" viewBox="0 0 512.000000 512.000000"
 preserveAspectRatio="xMidYMid meet">

<g transform="translate(0.000000,512.000000) scale(0.100000,-0.100000)"
fill="#0066ff" stroke="none">
<path d="M420 5109 c-30 -5 -92 -27 -136 -49 -137 -67 -237 -197 -270 -349
-11 -55 -14 -398 -14 -2141 0 -1375 4 -2097 10 -2140 34 -211 213 -388 425
-420 48 -7 730 -10 2165 -8 1894 3 2100 5 2146 20 190 59 336 225 364 413 7
47 10 752 8 2165 l-3 2095 -22 66 c-63 183 -220 320 -403 349 -81 12 -4189 12
-4270 -1z m2295 -1103 c73 -33 149 -106 182 -175 39 -80 39 -191 1 -273 -33
-71 -105 -143 -178 -177 -48 -23 -68 -26 -155 -26 -88 0 -107 3 -158 27 -81
38 -158 118 -186 193 -30 79 -27 188 8 258 43 89 147 171 248 197 63 16 176 5
238 -24z m225 -1921 l0 -1015 -377 2 -378 3 -3 1013 -2 1012 380 0 380 0 0
-1015z"/>
</g>
</svg>
