<?xml version="1.0" standalone="no"?>
<!DOCTYPE svg PUBLIC "-//W3C//DTD SVG 20010904//EN"
 "http://www.w3.org/TR/2001/REC-SVG-20010904/DTD/svg10.dtd">
<svg version="1.0" xmlns="../../../www.w3.org/2000/svg.html"
 width="343.000000pt" height="67.000000pt" viewBox="0 0 343.000000 67.000000"
 preserveAspectRatio="xMidYMid meet">

<g transform="translate(0.000000,67.000000) scale(0.100000,-0.100000)"
fill="#0066ff" stroke="none">
<path d="M53 658 c-56 -27 -48 -114 12 -131 94 -27 145 100 53 132 -36 13 -36
13 -65 -1z"/>
<path d="M293 563 l-23 -4 0 -270 0 -269 80 0 79 0 3 103 3 102 38 3 c21 2 44
-2 52 -8 7 -6 24 -54 36 -106 l23 -94 89 0 c79 0 88 2 83 18 -3 9 -12 46 -21
82 -25 99 -39 125 -74 139 l-31 13 43 22 c50 25 67 55 67 117 0 58 -31 107
-85 134 -34 17 -63 20 -190 21 -82 1 -160 0 -172 -3z m255 -109 c17 -12 22
-25 22 -59 0 -53 -16 -65 -89 -65 l-51 0 0 70 0 70 48 0 c27 0 57 -7 70 -16z"/>
<path d="M937 460 c-95 -24 -125 -67 -134 -195 -14 -181 77 -267 267 -252 41
3 90 11 108 18 28 10 32 15 32 47 0 21 -4 42 -8 48 -4 7 -43 11 -105 10 -92
-1 -100 1 -118 23 -39 47 -30 51 117 51 l136 0 -7 67 c-15 142 -55 184 -179
189 -39 2 -88 -1 -109 -6z m127 -112 c9 -12 16 -33 16 -45 0 -21 -4 -23 -60
-23 -58 0 -60 1 -60 26 0 44 17 64 55 64 24 0 39 -7 49 -22z"/>
<path d="M1395 465 c-5 -2 -23 -6 -38 -9 -38 -9 -67 -59 -67 -119 0 -86 32
-123 134 -152 42 -12 56 -21 56 -35 0 -23 -15 -26 -107 -20 -80 5 -76 8 -88
-62 -7 -36 -6 -37 32 -44 21 -5 76 -8 123 -8 139 0 200 46 200 151 -1 73 -28
98 -147 137 -41 14 -53 22 -53 38 0 18 6 19 84 16 l85 -3 5 29 c13 65 10 73
-40 80 -48 6 -161 7 -179 1z"/>
<path d="M2460 454 c-19 -8 -47 -27 -62 -41 l-27 -25 -6 36 -7 36 -64 0 -64 0
0 -220 0 -220 80 0 80 0 0 155 c0 155 0 155 24 161 13 3 37 4 52 2 l29 -3 3
-157 3 -158 79 0 80 0 0 155 c0 155 0 155 24 161 13 3 37 4 52 2 l29 -3 3
-157 3 -158 80 0 81 0 -4 200 c-4 231 -5 236 -95 246 -58 7 -111 -7 -152 -42
-28 -23 -29 -23 -34 -4 -11 44 -119 63 -187 34z"/>
<path d="M3128 456 c-25 -7 -58 -20 -72 -29 -55 -36 -77 -228 -35 -314 41 -84
159 -120 301 -94 88 17 91 20 83 74 l-7 45 -98 -1 c-83 -2 -101 1 -119 17 -11
11 -21 27 -21 38 0 17 10 18 130 18 l130 0 0 53 c0 111 -39 177 -114 196 -57
14 -118 13 -178 -3z m130 -98 c5 -7 13 -28 17 -45 l7 -33 -61 0 -61 0 0 33 c0
18 5 38 12 45 16 16 73 15 86 0z"/>
<path d="M10 240 l0 -220 80 0 80 0 0 220 0 220 -80 0 -80 0 0 -220z"/>
<path d="M1702 268 c2 -129 7 -200 16 -215 8 -15 29 -25 66 -34 45 -10 61 -9
103 5 28 9 61 28 73 41 31 33 38 32 46 -10 l6 -35 64 0 64 0 0 220 0 220 -80
0 -80 0 0 -154 c0 -151 0 -154 -22 -160 -37 -9 -73 -7 -86 6 -8 8 -12 58 -12
160 l0 148 -81 0 -81 0 4 -192z"/>
</g>
</svg>
